# xmcd
#
# Track frame offsets: 
#        150
#        15129
#        46320
#        66440
#        82230
#        98646
#        120686
#        142159
#        166366
#        178292
#        199028
#        214936
#        233284
#        259222
#        276407
#
# Disc length: 3867 seconds
#
# Revision: 0
# Processed by: cddbd v1.5.1PL0 Copyright (c) Steve Scherf et al.
# Submitted via: ExactAudioCopy v0.95a5
#
DISCID=db0f190f
DTITLE=Blue Band - Deal Again
DYEAR=1998
DGENRE=Blues
TTITLE0=I Feel It's Real
TTITLE1=Simulation Stimulation
TTITLE2=The Funky Sound Of Soul
TTITLE3=Not Me
TTITLE4=She's Got The Mojo And The Say So
TTITLE5=Sweet Poison
TTITLE6=Good Legs
TTITLE7=Baby, Please Don't Go
TTITLE8=Arc Welded
TTITLE9=The Dance Of Chivas
TTITLE10=Git Yer Shit Together/What Da Funkamatachoo?
TTITLE11=Take Care Of My Heart
TTITLE12=Honey Hush
TTITLE13=Liven It Up
TTITLE14=Santa Brought The House Down
EXTD=
EXTT0=
EXTT1=
EXTT2=
EXTT3=
EXTT4=
EXTT5=
EXTT6=
EXTT7=
EXTT8=
EXTT9=
EXTT10=
EXTT11=
EXTT12=
EXTT13=
EXTT14=
PLAYORDER=
